<?xml version="1.0" standalone="no"?>
<!DOCTYPE svg PUBLIC "-//W3C//DTD SVG 20010904//EN"
 "http://www.w3.org/TR/2001/REC-SVG-20010904/DTD/svg10.dtd">
<svg version="1.0" xmlns="http://www.w3.org/2000/svg"
 width="512.000000pt" height="512.000000pt" viewBox="0 0 512.000000 512.000000"
 preserveAspectRatio="xMidYMid meet">
<metadata>
Created by potrace 1.14, written by Peter Selinger 2001-2017
</metadata>
<g transform="translate(0.000000,512.000000) scale(0.100000,-0.100000)"
fill="#000000" stroke="none">
<path d="M4477 4554 c-1 -1 -38 -5 -82 -9 -44 -4 -93 -8 -110 -10 -16 -2 -64
-6 -105 -10 -41 -3 -95 -8 -120 -10 -186 -18 -249 -24 -310 -30 -146 -12 -198
-16 -230 -20 -19 -2 -71 -7 -115 -10 -44 -3 -91 -8 -105 -10 -14 -3 -61 -7
-105 -10 -44 -4 -96 -8 -115 -10 -19 -2 -69 -6 -110 -10 -41 -3 -93 -8 -115
-10 -22 -2 -69 -6 -105 -9 -97 -9 -181 -16 -220 -21 -42 -5 -158 -15 -220 -20
-25 -2 -74 -6 -110 -10 -36 -3 -87 -8 -115 -11 -81 -6 -177 -15 -215 -19 -77
-8 -206 -18 -222 -17 -9 0 -18 -7 -20 -16 -2 -9 -3 -538 -3 -1175 1 -1042 -1
-1157 -15 -1151 -8 3 -24 9 -35 12 -11 2 -24 8 -30 12 -26 20 -137 41 -233 44
-199 7 -381 -65 -528 -209 -92 -91 -150 -182 -190 -300 -24 -70 -27 -96 -28
-210 -1 -151 20 -245 81 -355 129 -238 356 -378 623 -385 226 -7 411 71 564
236 70 76 146 210 165 294 6 28 14 61 18 75 3 14 7 548 8 1188 1 639 4 1164 6
1166 2 3 33 7 69 11 36 4 83 8 105 11 22 2 71 6 109 9 37 3 87 7 110 10 22 3
68 7 101 10 33 3 87 7 120 11 33 3 83 7 110 10 28 2 70 6 95 9 25 2 79 7 120
10 41 4 89 8 105 9 28 3 118 11 225 21 25 2 72 6 105 10 136 12 163 15 230 20
39 3 86 7 105 10 19 2 69 7 110 10 41 3 89 8 105 10 17 2 70 7 118 10 l87 7 0
-751 c0 -421 -4 -751 -9 -751 -5 0 -29 9 -53 20 -115 51 -293 66 -428 37 -135
-30 -279 -111 -374 -211 -84 -90 -162 -237 -186 -351 -15 -73 -19 -205 -8
-264 5 -25 10 -55 12 -66 9 -49 65 -175 103 -230 121 -178 299 -290 508 -321
17 -2 68 -4 115 -4 324 -1 615 232 699 560 19 72 20 129 20 1622 l1 1547 -41
-2 c-22 -1 -41 -3 -42 -3z"/>
</g>
</svg>
